<svg id="Layer_1" data-name="Layer 1" xmlns="http://www.w3.org/2000/svg" viewBox="0 0 1274.75 1028.87"><defs><style>.cls-1,.cls-15{fill:none;stroke:#e50914;stroke-miterlimit:10;stroke-width:4px}.cls-1{stroke-linecap:round}.cls-16,.cls-2,.cls-4{font-size:20px;font-family:'Netflix Sans', 'HelveticaNeue', 'Helvetica Neue', Helvetica, Arial, sans-serif;font-weight:700}.cls-16,.cls-2,.cls-4,.cls-6{letter-spacing:.09em}.cls-14{fill:#e50914}.cls-16{fill:#fff}</style></defs><path class="cls-1" d="M548.46 2h343.03v109.54H548.46z"/><path class="cls-1" d="M848.58 707.29c-159.33 10-201.09 76.8-252.34 20.22V586.72h252.34z" transform="translate(-2.44 -43.13)"/><text class="cls-2" transform="translate(589.61 49.77)" data-i18n="step-1">INITIAL ENGAGEMENT</text><text class="cls-4" transform="translate(643.08 611.24)" data-i18n="step-5">SITE SURVEY</text><text class="cls-4" transform="translate(999.14 427.39)" data-i18n="optional-step">ESTABLISH SFI</text><path class="cls-1" d="M16.62 360.31h189.13V496.1H16.62z"/><text class="cls-4" transform="translate(51.09 404.05)" data-i18n="step-3">NETWORK<tspan x="15.77" y="24">DESIGN</tspan></text><path class="cls-1" d="M2 894.37h320.57v128.18H2z"/><text class="cls-4" transform="translate(47.8 935.83)" data-i18n="step-6">OCAs CONFIGURED<tspan x="43.31" y="24">AND FILLED</tspan></text><path class="cls-1" d="M422.92 890.04h309.17v136.84H422.92z"/><text class="cls-4" transform="translate(460.94 922.83)" data-i18n="step-7">OCAs SHIPPED AND<tspan class="cls-6"><tspan x="25.71" y="24">INSTALLED, SFI</tspan></tspan><tspan x="36.24" y="48">ESTABLISHED</tspan></text><path class="cls-1" d="M307.04 360.31h189.13V496.1H307.04z"/><text class="cls-4" transform="translate(363.34 404.05)" data-i18n="step-4">LEGAL<tspan class="cls-6"><tspan x="-35.89" y="24">DOCUMENTS</tspan></tspan></text><text class="cls-2" transform="translate(684.37 267.68)" data-i18n="step-2">BASIC<tspan letter-spacing=".09em"><tspan x="-57.15" y="24">REQUIREMENTS</tspan><tspan x="5.72" y="48">MET?</tspan></tspan></text><path class="cls-1" d="M719.56 111.87v66"/><path class="cls-14" d="M709.98 174.87l9.97 17.28 9.97-17.28h-19.94z"/><path class="cls-1" d="M401.56 303.87v39"/><path class="cls-14" d="M391.63 339.87l9.97 17.27 9.98-17.27h-19.95z"/><path class="cls-1" d="M891.56 303.87h195v39"/><path class="cls-14" d="M1076.75 339.87l9.97 17.27 9.97-17.27h-19.94z"/><path class="cls-1" d="M548.56 303.87h-437v39"/><path class="cls-14" d="M101.21 339.87l9.97 17.27 9.98-17.27h-19.95z"/><path class="cls-1" d="M719.95 414.03L548.46 303.38l171.49-111.35 171.54 111-171.54 111z"/><rect class="cls-1" x="900.99" y="360.31" width="371.76" height="116.58" rx="52.37"/><text class="cls-4" transform="translate(909.33 938.42)" data-i18n="step-8">PRODUCTION AND<tspan x="21.81" y="24">MAINTENANCE</tspan></text><rect class="cls-1" x="831.29" y="900.17" width="371.76" height="116.58" rx="52.37"/><path class="cls-1" d="M111.56 495.87v118h464"/><path class="cls-14" d="M572.56 623.96l17.27-9.97-17.27-9.97v19.94z"/><path class="cls-1" d="M720.11 687.77l-.13 113.1H162.56v75"/><path class="cls-14" d="M152.31 872.87l9.98 17.27 9.97-17.27h-19.95z"/><path class="cls-1" d="M401.56 495.87v118"/><path class="cls-15" d="M323.56 954.87h82"/><path class="cls-14" d="M402.56 964.17l16.58-9.57-16.58-9.58v19.15z"/><path class="cls-15" d="M732.56 954.87h81"/><path class="cls-14" d="M810.56 964.17l16.58-9.57-16.58-9.58v19.15z"/><circle cx="719.56" cy="81.54" r="15.5"/><text class="cls-16" transform="translate(715.34 88.87)">1</text><circle cx="719.56" cy="346.54" r="15.5"/><text class="cls-16" transform="translate(713.33 353.87)">2</text><circle cx="111.56" cy="456.54" r="15.5"/><text class="cls-16" transform="translate(105.35 463.87)">3</text><circle cx="401.56" cy="456.54" r="15.5"/><text class="cls-16" transform="translate(394.67 463.87)">4</text><circle cx="719.56" cy="642.54" r="15.5"/><text class="cls-16" transform="translate(713.26 649.87)">5</text><circle cx="1018.56" cy="988.54" r="15.5"/><text class="cls-16" transform="translate(1012.26 995.87)">8</text><circle cx="162.56" cy="989.54" r="15.5"/><text transform="translate(155.94 996.87)" fill="#fff" letter-spacing=".09em" font-size="20" font-family="'Netflix Sans', 'HelveticaNeue', 'Helvetica Neue', Helvetica, Arial, sans-serif" font-weight="700">6</text><circle cx="574.56" cy="1001.54" r="15.5"/><text class="cls-16" transform="translate(568.37 1009.87)">7</text></svg>